<mxfile host="app.diagrams.net" modified="2024-02-27T18:47:32.318Z" agent="Mozilla/5.0 (Windows NT 10.0; Win64; x64) AppleWebKit/537.36 (KHTML, like Gecko) Chrome/121.0.0.0 Safari/537.36" etag="W8kTtWZmIBGjDSLq8uPs" version="23.1.7" type="device">
  <diagram id="R2lEEEUBdFMjLlhIrx00" name="Page-1">
    <mxGraphModel dx="1114" dy="566" grid="1" gridSize="8" guides="1" tooltips="1" connect="1" arrows="1" fold="1" page="1" pageScale="1" pageWidth="850" pageHeight="1100" math="0" shadow="0" extFonts="Permanent Marker^https://fonts.googleapis.com/css?family=Permanent+Marker">
      <root>
        <mxCell id="0" />
        <mxCell id="1" parent="0" />
        <mxCell id="S8yH_jt_PmB-1unCU1Wj-1" value="FARMERS" style="shape=table;startSize=30;container=1;collapsible=1;childLayout=tableLayout;fixedRows=1;rowLines=0;fontStyle=1;align=center;resizeLast=1;html=1;" parent="1" vertex="1">
          <mxGeometry x="330" y="232" width="180" height="368" as="geometry" />
        </mxCell>
        <mxCell id="S8yH_jt_PmB-1unCU1Wj-2" value="" style="shape=tableRow;horizontal=0;startSize=0;swimlaneHead=0;swimlaneBody=0;fillColor=none;collapsible=0;dropTarget=0;points=[[0,0.5],[1,0.5]];portConstraint=eastwest;top=0;left=0;right=0;bottom=1;" parent="S8yH_jt_PmB-1unCU1Wj-1" vertex="1">
          <mxGeometry y="30" width="180" height="70" as="geometry" />
        </mxCell>
        <mxCell id="S8yH_jt_PmB-1unCU1Wj-3" value="PK" style="shape=partialRectangle;connectable=0;fillColor=none;top=0;left=0;bottom=0;right=0;fontStyle=1;overflow=hidden;whiteSpace=wrap;html=1;" parent="S8yH_jt_PmB-1unCU1Wj-2" vertex="1">
          <mxGeometry width="30" height="70" as="geometry">
            <mxRectangle width="30" height="70" as="alternateBounds" />
          </mxGeometry>
        </mxCell>
        <mxCell id="S8yH_jt_PmB-1unCU1Wj-4" value="UserID INT PRIMARY KEY NOT NULL IDENTITY(1,1)" style="shape=partialRectangle;connectable=0;fillColor=none;top=0;left=0;bottom=0;right=0;align=left;spacingLeft=6;fontStyle=5;overflow=hidden;whiteSpace=wrap;html=1;" parent="S8yH_jt_PmB-1unCU1Wj-2" vertex="1">
          <mxGeometry x="30" width="150" height="70" as="geometry">
            <mxRectangle width="150" height="70" as="alternateBounds" />
          </mxGeometry>
        </mxCell>
        <mxCell id="S8yH_jt_PmB-1unCU1Wj-5" value="" style="shape=tableRow;horizontal=0;startSize=0;swimlaneHead=0;swimlaneBody=0;fillColor=none;collapsible=0;dropTarget=0;points=[[0,0.5],[1,0.5]];portConstraint=eastwest;top=0;left=0;right=0;bottom=0;" parent="S8yH_jt_PmB-1unCU1Wj-1" vertex="1">
          <mxGeometry y="100" width="180" height="36" as="geometry" />
        </mxCell>
        <mxCell id="S8yH_jt_PmB-1unCU1Wj-6" value="" style="shape=partialRectangle;connectable=0;fillColor=none;top=0;left=0;bottom=0;right=0;editable=1;overflow=hidden;whiteSpace=wrap;html=1;" parent="S8yH_jt_PmB-1unCU1Wj-5" vertex="1">
          <mxGeometry width="30" height="36" as="geometry">
            <mxRectangle width="30" height="36" as="alternateBounds" />
          </mxGeometry>
        </mxCell>
        <mxCell id="S8yH_jt_PmB-1unCU1Wj-7" value="FirstName VARCHAR(50) NOT NULL" style="shape=partialRectangle;connectable=0;fillColor=none;top=0;left=0;bottom=0;right=0;align=left;spacingLeft=6;overflow=hidden;whiteSpace=wrap;html=1;" parent="S8yH_jt_PmB-1unCU1Wj-5" vertex="1">
          <mxGeometry x="30" width="150" height="36" as="geometry">
            <mxRectangle width="150" height="36" as="alternateBounds" />
          </mxGeometry>
        </mxCell>
        <mxCell id="S8yH_jt_PmB-1unCU1Wj-8" value="" style="shape=tableRow;horizontal=0;startSize=0;swimlaneHead=0;swimlaneBody=0;fillColor=none;collapsible=0;dropTarget=0;points=[[0,0.5],[1,0.5]];portConstraint=eastwest;top=0;left=0;right=0;bottom=0;" parent="S8yH_jt_PmB-1unCU1Wj-1" vertex="1">
          <mxGeometry y="136" width="180" height="46" as="geometry" />
        </mxCell>
        <mxCell id="S8yH_jt_PmB-1unCU1Wj-9" value="" style="shape=partialRectangle;connectable=0;fillColor=none;top=0;left=0;bottom=0;right=0;editable=1;overflow=hidden;whiteSpace=wrap;html=1;" parent="S8yH_jt_PmB-1unCU1Wj-8" vertex="1">
          <mxGeometry width="30" height="46" as="geometry">
            <mxRectangle width="30" height="46" as="alternateBounds" />
          </mxGeometry>
        </mxCell>
        <mxCell id="S8yH_jt_PmB-1unCU1Wj-10" value="LastName VARCHAR (50) NOT NULL," style="shape=partialRectangle;connectable=0;fillColor=none;top=0;left=0;bottom=0;right=0;align=left;spacingLeft=6;overflow=hidden;whiteSpace=wrap;html=1;" parent="S8yH_jt_PmB-1unCU1Wj-8" vertex="1">
          <mxGeometry x="30" width="150" height="46" as="geometry">
            <mxRectangle width="150" height="46" as="alternateBounds" />
          </mxGeometry>
        </mxCell>
        <mxCell id="S8yH_jt_PmB-1unCU1Wj-14" style="shape=tableRow;horizontal=0;startSize=0;swimlaneHead=0;swimlaneBody=0;fillColor=none;collapsible=0;dropTarget=0;points=[[0,0.5],[1,0.5]];portConstraint=eastwest;top=0;left=0;right=0;bottom=0;" parent="S8yH_jt_PmB-1unCU1Wj-1" vertex="1">
          <mxGeometry y="182" width="180" height="48" as="geometry" />
        </mxCell>
        <mxCell id="S8yH_jt_PmB-1unCU1Wj-15" style="shape=partialRectangle;connectable=0;fillColor=none;top=0;left=0;bottom=0;right=0;editable=1;overflow=hidden;whiteSpace=wrap;html=1;" parent="S8yH_jt_PmB-1unCU1Wj-14" vertex="1">
          <mxGeometry width="30" height="48" as="geometry">
            <mxRectangle width="30" height="48" as="alternateBounds" />
          </mxGeometry>
        </mxCell>
        <mxCell id="S8yH_jt_PmB-1unCU1Wj-16" value="Village_Name VARCHAR(50) NOT NULL" style="shape=partialRectangle;connectable=0;fillColor=none;top=0;left=0;bottom=0;right=0;align=left;spacingLeft=6;overflow=hidden;whiteSpace=wrap;html=1;" parent="S8yH_jt_PmB-1unCU1Wj-14" vertex="1">
          <mxGeometry x="30" width="150" height="48" as="geometry">
            <mxRectangle width="150" height="48" as="alternateBounds" />
          </mxGeometry>
        </mxCell>
        <mxCell id="S8yH_jt_PmB-1unCU1Wj-33" value="" style="shape=tableRow;horizontal=0;startSize=0;swimlaneHead=0;swimlaneBody=0;fillColor=none;collapsible=0;dropTarget=0;points=[[0,0.5],[1,0.5]];portConstraint=eastwest;top=0;left=0;right=0;bottom=0;" parent="S8yH_jt_PmB-1unCU1Wj-1" vertex="1">
          <mxGeometry y="230" width="180" height="56" as="geometry" />
        </mxCell>
        <mxCell id="S8yH_jt_PmB-1unCU1Wj-34" value="FK" style="shape=partialRectangle;connectable=0;fillColor=none;top=0;left=0;bottom=0;right=0;fontStyle=0;overflow=hidden;whiteSpace=wrap;html=1;" parent="S8yH_jt_PmB-1unCU1Wj-33" vertex="1">
          <mxGeometry width="30" height="56" as="geometry">
            <mxRectangle width="30" height="56" as="alternateBounds" />
          </mxGeometry>
        </mxCell>
        <mxCell id="S8yH_jt_PmB-1unCU1Wj-35" value="[TYPE OF FARMING] VARCHAR(30) NOT NULL" style="shape=partialRectangle;connectable=0;fillColor=none;top=0;left=0;bottom=0;right=0;align=left;spacingLeft=6;fontStyle=0;overflow=hidden;whiteSpace=wrap;html=1;" parent="S8yH_jt_PmB-1unCU1Wj-33" vertex="1">
          <mxGeometry x="30" width="150" height="56" as="geometry">
            <mxRectangle width="150" height="56" as="alternateBounds" />
          </mxGeometry>
        </mxCell>
        <mxCell id="wQuZCxLNuFbsMm5UIzpz-4" value="" style="shape=tableRow;horizontal=0;startSize=0;swimlaneHead=0;swimlaneBody=0;fillColor=none;collapsible=0;dropTarget=0;points=[[0,0.5],[1,0.5]];portConstraint=eastwest;top=0;left=0;right=0;bottom=0;" vertex="1" parent="S8yH_jt_PmB-1unCU1Wj-1">
          <mxGeometry y="286" width="180" height="30" as="geometry" />
        </mxCell>
        <mxCell id="wQuZCxLNuFbsMm5UIzpz-5" value="FK" style="shape=partialRectangle;connectable=0;fillColor=none;top=0;left=0;bottom=0;right=0;fontStyle=0;overflow=hidden;whiteSpace=wrap;html=1;" vertex="1" parent="wQuZCxLNuFbsMm5UIzpz-4">
          <mxGeometry width="30" height="30" as="geometry">
            <mxRectangle width="30" height="30" as="alternateBounds" />
          </mxGeometry>
        </mxCell>
        <mxCell id="wQuZCxLNuFbsMm5UIzpz-6" value="[PROVINCE]&amp;nbsp; VARCHAR (50) NOT NULL" style="shape=partialRectangle;connectable=0;fillColor=none;top=0;left=0;bottom=0;right=0;align=left;spacingLeft=6;fontStyle=0;overflow=hidden;whiteSpace=wrap;html=1;" vertex="1" parent="wQuZCxLNuFbsMm5UIzpz-4">
          <mxGeometry x="30" width="150" height="30" as="geometry">
            <mxRectangle width="150" height="30" as="alternateBounds" />
          </mxGeometry>
        </mxCell>
        <mxCell id="wQuZCxLNuFbsMm5UIzpz-7" value="" style="shape=tableRow;horizontal=0;startSize=0;swimlaneHead=0;swimlaneBody=0;fillColor=none;collapsible=0;dropTarget=0;points=[[0,0.5],[1,0.5]];portConstraint=eastwest;top=0;left=0;right=0;bottom=0;" vertex="1" parent="S8yH_jt_PmB-1unCU1Wj-1">
          <mxGeometry y="316" width="180" height="52" as="geometry" />
        </mxCell>
        <mxCell id="wQuZCxLNuFbsMm5UIzpz-8" value="FK" style="shape=partialRectangle;connectable=0;fillColor=none;top=0;left=0;bottom=0;right=0;fontStyle=0;overflow=hidden;whiteSpace=wrap;html=1;" vertex="1" parent="wQuZCxLNuFbsMm5UIzpz-7">
          <mxGeometry width="30" height="52" as="geometry">
            <mxRectangle width="30" height="52" as="alternateBounds" />
          </mxGeometry>
        </mxCell>
        <mxCell id="wQuZCxLNuFbsMm5UIzpz-9" value="&#xa;&lt;span style=&quot;color: rgb(0, 0, 0); font-family: Helvetica; font-size: 12px; font-style: normal; font-variant-ligatures: normal; font-variant-caps: normal; font-weight: 400; letter-spacing: normal; orphans: 2; text-align: left; text-indent: 0px; text-transform: none; widows: 2; word-spacing: 0px; -webkit-text-stroke-width: 0px; background-color: rgb(251, 251, 251); text-decoration-thickness: initial; text-decoration-style: initial; text-decoration-color: initial; float: none; display: inline !important;&quot;&gt;[GENDER] VARCHAR(20) NOT NULL&lt;/span&gt;&#xa;&#xa;" style="shape=partialRectangle;connectable=0;fillColor=none;top=0;left=0;bottom=0;right=0;align=left;spacingLeft=6;fontStyle=0;overflow=hidden;whiteSpace=wrap;html=1;" vertex="1" parent="wQuZCxLNuFbsMm5UIzpz-7">
          <mxGeometry x="30" width="150" height="52" as="geometry">
            <mxRectangle width="150" height="52" as="alternateBounds" />
          </mxGeometry>
        </mxCell>
        <mxCell id="wQuZCxLNuFbsMm5UIzpz-10" value="GENDERS" style="shape=table;startSize=30;container=1;collapsible=1;childLayout=tableLayout;fixedRows=1;rowLines=0;fontStyle=1;align=center;resizeLast=1;html=1;" vertex="1" parent="1">
          <mxGeometry x="40" y="624" width="180" height="102" as="geometry" />
        </mxCell>
        <mxCell id="wQuZCxLNuFbsMm5UIzpz-11" value="" style="shape=tableRow;horizontal=0;startSize=0;swimlaneHead=0;swimlaneBody=0;fillColor=none;collapsible=0;dropTarget=0;points=[[0,0.5],[1,0.5]];portConstraint=eastwest;top=0;left=0;right=0;bottom=1;" vertex="1" parent="wQuZCxLNuFbsMm5UIzpz-10">
          <mxGeometry y="30" width="180" height="72" as="geometry" />
        </mxCell>
        <mxCell id="wQuZCxLNuFbsMm5UIzpz-12" value="PK" style="shape=partialRectangle;connectable=0;fillColor=none;top=0;left=0;bottom=0;right=0;fontStyle=1;overflow=hidden;whiteSpace=wrap;html=1;" vertex="1" parent="wQuZCxLNuFbsMm5UIzpz-11">
          <mxGeometry width="30" height="72" as="geometry">
            <mxRectangle width="30" height="72" as="alternateBounds" />
          </mxGeometry>
        </mxCell>
        <mxCell id="wQuZCxLNuFbsMm5UIzpz-13" value="GENDER] VARCHAR(20) PRIMARY KEY NOT NULL" style="shape=partialRectangle;connectable=0;fillColor=none;top=0;left=0;bottom=0;right=0;align=left;spacingLeft=6;fontStyle=5;overflow=hidden;whiteSpace=wrap;html=1;" vertex="1" parent="wQuZCxLNuFbsMm5UIzpz-11">
          <mxGeometry x="30" width="150" height="72" as="geometry">
            <mxRectangle width="150" height="72" as="alternateBounds" />
          </mxGeometry>
        </mxCell>
        <mxCell id="wQuZCxLNuFbsMm5UIzpz-37" value="PROVINCES" style="shape=table;startSize=30;container=1;collapsible=1;childLayout=tableLayout;fixedRows=1;rowLines=0;fontStyle=1;align=center;resizeLast=1;html=1;rounded=0;shadow=0;swimlaneLine=1;" vertex="1" parent="1">
          <mxGeometry x="608" y="518" width="180" height="106" as="geometry" />
        </mxCell>
        <mxCell id="wQuZCxLNuFbsMm5UIzpz-38" value="" style="shape=tableRow;horizontal=0;startSize=0;swimlaneHead=0;swimlaneBody=0;fillColor=none;collapsible=0;dropTarget=0;points=[[0,0.5],[1,0.5]];portConstraint=eastwest;top=0;left=0;right=0;bottom=1;" vertex="1" parent="wQuZCxLNuFbsMm5UIzpz-37">
          <mxGeometry y="30" width="180" height="76" as="geometry" />
        </mxCell>
        <mxCell id="wQuZCxLNuFbsMm5UIzpz-39" value="PK" style="shape=partialRectangle;connectable=0;fillColor=none;top=0;left=0;bottom=0;right=0;fontStyle=1;overflow=hidden;whiteSpace=wrap;html=1;" vertex="1" parent="wQuZCxLNuFbsMm5UIzpz-38">
          <mxGeometry width="30" height="76" as="geometry">
            <mxRectangle width="30" height="76" as="alternateBounds" />
          </mxGeometry>
        </mxCell>
        <mxCell id="wQuZCxLNuFbsMm5UIzpz-40" value="[PROVINCE] VARCHAR(50)PRIMARY KEY NOT NULL" style="shape=partialRectangle;connectable=0;fillColor=none;top=0;left=0;bottom=0;right=0;align=left;spacingLeft=6;fontStyle=5;overflow=hidden;whiteSpace=wrap;html=1;" vertex="1" parent="wQuZCxLNuFbsMm5UIzpz-38">
          <mxGeometry x="30" width="150" height="76" as="geometry">
            <mxRectangle width="150" height="76" as="alternateBounds" />
          </mxGeometry>
        </mxCell>
        <mxCell id="wQuZCxLNuFbsMm5UIzpz-24" value="FARM_TYPES" style="shape=table;startSize=30;container=1;collapsible=1;childLayout=tableLayout;fixedRows=1;rowLines=0;fontStyle=1;align=center;resizeLast=1;html=1;" vertex="1" parent="1">
          <mxGeometry x="48" y="352" width="180" height="96" as="geometry" />
        </mxCell>
        <mxCell id="wQuZCxLNuFbsMm5UIzpz-25" value="" style="shape=tableRow;horizontal=0;startSize=0;swimlaneHead=0;swimlaneBody=0;fillColor=none;collapsible=0;dropTarget=0;points=[[0,0.5],[1,0.5]];portConstraint=eastwest;top=0;left=0;right=0;bottom=1;" vertex="1" parent="wQuZCxLNuFbsMm5UIzpz-24">
          <mxGeometry y="30" width="180" height="66" as="geometry" />
        </mxCell>
        <mxCell id="wQuZCxLNuFbsMm5UIzpz-26" value="PK" style="shape=partialRectangle;connectable=0;fillColor=none;top=0;left=0;bottom=0;right=0;fontStyle=1;overflow=hidden;whiteSpace=wrap;html=1;" vertex="1" parent="wQuZCxLNuFbsMm5UIzpz-25">
          <mxGeometry width="30" height="66" as="geometry">
            <mxRectangle width="30" height="66" as="alternateBounds" />
          </mxGeometry>
        </mxCell>
        <mxCell id="wQuZCxLNuFbsMm5UIzpz-27" value="[TYPE OF FARMING] VARCHAR(30)PRIMARY KEY NOT NULL" style="shape=partialRectangle;connectable=0;fillColor=none;top=0;left=0;bottom=0;right=0;align=left;spacingLeft=6;fontStyle=5;overflow=hidden;whiteSpace=wrap;html=1;" vertex="1" parent="wQuZCxLNuFbsMm5UIzpz-25">
          <mxGeometry x="30" width="150" height="66" as="geometry">
            <mxRectangle width="150" height="66" as="alternateBounds" />
          </mxGeometry>
        </mxCell>
        <mxCell id="wQuZCxLNuFbsMm5UIzpz-50" value="" style="edgeStyle=entityRelationEdgeStyle;fontSize=12;html=1;endArrow=ERoneToMany;rounded=0;" edge="1" parent="1">
          <mxGeometry width="100" height="100" relative="1" as="geometry">
            <mxPoint x="220" y="676" as="sourcePoint" />
            <mxPoint x="320" y="576" as="targetPoint" />
          </mxGeometry>
        </mxCell>
        <mxCell id="wQuZCxLNuFbsMm5UIzpz-52" value="" style="edgeStyle=entityRelationEdgeStyle;fontSize=12;html=1;endArrow=ERoneToMany;rounded=0;exitX=1.022;exitY=0.273;exitDx=0;exitDy=0;exitPerimeter=0;" edge="1" parent="1" source="wQuZCxLNuFbsMm5UIzpz-25">
          <mxGeometry width="100" height="100" relative="1" as="geometry">
            <mxPoint x="224" y="436" as="sourcePoint" />
            <mxPoint x="324" y="488" as="targetPoint" />
            <Array as="points">
              <mxPoint x="248" y="400" />
            </Array>
          </mxGeometry>
        </mxCell>
        <mxCell id="wQuZCxLNuFbsMm5UIzpz-53" value="" style="fontSize=12;html=1;endArrow=ERoneToMany;rounded=0;edgeStyle=elbowEdgeStyle;exitX=0;exitY=0.5;exitDx=0;exitDy=0;entryX=1.039;entryY=0.633;entryDx=0;entryDy=0;entryPerimeter=0;" edge="1" parent="1" source="wQuZCxLNuFbsMm5UIzpz-38" target="wQuZCxLNuFbsMm5UIzpz-4">
          <mxGeometry width="100" height="100" relative="1" as="geometry">
            <mxPoint x="592" y="584" as="sourcePoint" />
            <mxPoint x="520" y="536" as="targetPoint" />
          </mxGeometry>
        </mxCell>
        <mxCell id="wQuZCxLNuFbsMm5UIzpz-56" value="&lt;h1&gt;Farmers App&lt;/h1&gt;&lt;p&gt;ERD Diagram&lt;/p&gt;&lt;p&gt;Version 2.0.&lt;/p&gt;" style="text;html=1;spacing=5;spacingTop=-20;whiteSpace=wrap;overflow=hidden;rounded=0;" vertex="1" parent="1">
          <mxGeometry x="648" y="24" width="190" height="100" as="geometry" />
        </mxCell>
      </root>
    </mxGraphModel>
  </diagram>
</mxfile>
